<?xml version="1.0" standalone="no"?>
<!DOCTYPE svg PUBLIC "-//W3C//DTD SVG 20010904//EN"
 "http://www.w3.org/TR/2001/REC-SVG-20010904/DTD/svg10.dtd">
<svg version="1.0" xmlns="http://www.w3.org/2000/svg"
 width="794.000000pt" height="794.000000pt" viewBox="0 0 794.000000 794.000000"
 preserveAspectRatio="xMidYMid meet">
<metadata>
Created by potrace 1.14, written by Peter Selinger 2001-2017
</metadata>
<g transform="translate(0.000000,794.000000) scale(0.100000,-0.100000)"
fill="#000000" stroke="none">
<path d="M5655 5590 c-717 -60 -1238 -326 -1578 -807 -149 -212 -241 -447
-282 -728 -19 -129 -22 -415 -5 -550 86 -701 487 -1221 1137 -1475 459 -180
1165 -211 1670 -75 191 51 507 186 520 222 3 10 29 70 57 133 l52 115 -32 27
-31 27 -109 -49 c-225 -100 -461 -167 -666 -189 -145 -16 -423 -14 -547 5
-343 50 -600 173 -816 390 -306 307 -455 705 -455 1216 0 468 128 828 387
1085 182 180 409 291 693 340 141 24 430 22 581 -5 142 -26 289 -72 390 -123
89 -44 222 -146 249 -191 20 -33 27 -95 38 -328 l7 -135 107 -3 106 -3 7 88
c25 339 51 532 88 659 28 96 23 115 -37 138 -239 90 -552 164 -856 201 -153
19 -526 27 -675 15z"/>
<path d="M2675 5550 c-419 -11 -1169 -16 -1540 -11 l-320 5 -3 -106 -3 -106
88 -6 c219 -17 291 -34 313 -76 34 -63 47 -306 60 -1096 15 -830 -6 -1759 -41
-1900 -6 -23 -20 -50 -30 -60 -30 -27 -115 -44 -256 -51 l-133 -6 0 -109 0
-109 148 8 c191 10 1416 10 1509 0 l72 -8 3 101 c2 56 1 106 -2 110 -3 4 -74
13 -159 19 -169 13 -244 25 -279 43 -68 35 -74 113 -87 1066 l-5 392 315 0
c339 0 485 -11 552 -40 34 -15 44 -25 52 -57 11 -41 26 -159 36 -290 l7 -83
108 0 109 0 -2 565 -2 565 -106 0 -107 0 -7 -77 c-14 -151 -32 -235 -58 -261
-35 -35 -113 -41 -534 -42 l-363 0 0 408 c0 366 10 698 26 839 l5 51 97 9 c53
4 234 8 402 7 323 -1 421 -10 564 -54 60 -19 69 -25 83 -57 12 -29 42 -305 43
-390 0 -22 3 -23 109 -23 l108 0 7 153 c8 182 20 318 42 489 13 101 14 134 5
156 l-12 29 -142 6 c-156 8 -243 7 -672 -3z"/>
</g>
</svg>
